HIERARCHY
ROOT Hips
{
  OFFSET -257.165 94.4668 8.09714
  CHANNELS 6 Xposition Yposition Zposition Zrotation Xrotation Yrotation
  JOINT RightUpLeg
  {
    OFFSET -8.9458 -8.66707 0.101652
    CHANNELS 3 Zrotation Xrotation Yrotation
    JOINT RightLeg
    {
      OFFSET 0 -44.4227 1.3727
      CHANNELS 3 Zrotation Xrotation Yrotation
      JOINT RightFoot
      {
        OFFSET 0.253549 -42.0924 -1.46059
        CHANNELS 3 Zrotation Xrotation Yrotation
        JOINT RightToes
        {
          OFFSET 0.04 -4.41509 8.4991
          CHANNELS 3 Zrotation Xrotation Yrotation
          End Site
          {
            OFFSET -0.08 -0.137448 9.77979
          }
        }
      }
    }
  }
  JOINT Spine
  {
    OFFSET 0 11.8905 0
    CHANNELS 3 Zrotation Xrotation Yrotation
    JOINT Spine1
    {
      OFFSET 0 25.6574 0.127663
      CHANNELS 3 Zrotation Xrotation Yrotation
      JOINT HEad
      {
        OFFSET 0 8.73416 0.011341
        CHANNELS 3 Zrotation Xrotation Yrotation
        End Site
        {
          OFFSET -0.29 12.7742 2.51395
        }
      }
      JOINT LeftShoulder1
      {
        OFFSET 8.99 -0.362252 -0.22
        CHANNELS 3 Zrotation Xrotation Yrotation
        JOINT LeftArm
        {
          OFFSET 10.2827 -0.00338 0.322123
          CHANNELS 3 Zrotation Xrotation Yrotation
          JOINT LeftForeArm
          {
            OFFSET 32.7669 0.099144 -1.42434
            CHANNELS 3 Zrotation Xrotation Yrotation
            JOINT LeftHand
            {
              OFFSET 27.5643 0.085362 1.02216
              CHANNELS 3 Zrotation Xrotation Yrotation
              End Site
              {
                OFFSET 16.7443 -0.6 1.50291
              }
            }
          }
        }
      }
      JOINT RightShoulder
      {
        OFFSET -8.99 -0.362252 -0.22
        CHANNELS 3 Zrotation Xrotation Yrotation
        JOINT RightArm
        {
          OFFSET -10.2827 -0.00338 0.322123
          CHANNELS 3 Zrotation Xrotation Yrotation
          JOINT RightForeArm
          {
            OFFSET -32.8971 0.099144 -1.42434
            CHANNELS 3 Zrotation Xrotation Yrotation
            JOINT RightHand
            {
              OFFSET -27.4921 0.085362 1.02216
              CHANNELS 3 Zrotation Xrotation Yrotation
              End Site
              {
                OFFSET -16.6312 -0.6 1.50291
              }
            }
          }
        }
      }
    }
  }
  JOINT LeftUpLeg
  {
    OFFSET 8.9458 -8.66707 0.101652
    CHANNELS 3 Zrotation Xrotation Yrotation
    JOINT LeftLeg
    {
      OFFSET 0 -44.4227 1.3727
      CHANNELS 3 Zrotation Xrotation Yrotation
      JOINT LeftFoot
      {
        OFFSET -0.253549 -42.0924 -1.46059
        CHANNELS 3 Zrotation Xrotation Yrotation
        JOINT LeftToes
        {
          OFFSET -0.04 -4.41509 8.4991
          CHANNELS 3 Zrotation Xrotation Yrotation
          End Site
          {
            OFFSET 0.08 -0.047448 9.77979
          }
        }
      }
    }
  }
}
MOTION
Frames:	6
Frame Time:	0.0166667
-258.283 94.2824 8.30491 -9.80151 11.4037 -141.229 -28.7931 12.9492 21.3517 47.2079 4.17558 -42.9821 -2.01824 -1.58587 -0.409361 0.0462048 0.000533403 0.662642 -10.2919 24.8197 0.745118 -0.00258252 -2.2747e-009 -0.00147784 -11.657 24.0454 10.9461 -5.96354e-016 3.97569e-016 -0 -179.785 -51.5513 -141.798 -113.633 75.2284 -4.60363 17.8802 18.5803 -6.32752 14.7193 9.91047 -0.868953 107.964 -8.07816 77.5822 -4.06321 51.609 108.914 15.3218 20.4904 5.08534 21.0408 -9.71028 -23.6938 -29.7646 17.6317 61.6748 -8.40932 -1.83946 -0.263118 -1.18447e-009 1.5602e-007 -4.87132e-009 
-257.923 94.3107 8.21468 -9.92438 11.1852 -141.124 -28.845 12.7315 20.6179 47.1766 4.79179 -42.6933 -1.00442 -1.56647 -0.376315 0.0462048 0.000533403 0.662642 -10.4092 24.7768 0.710538 -0.00258252 -2.2747e-009 -0.00147784 -11.941 23.7008 11.3949 -4.96962e-015 -1.98785e-015 -0 179.99 -51.3334 -142.01 -114.268 75.1207 -4.11759 17.9926 18.5592 -6.3171 14.5286 9.76428 -0.947503 108.124 -7.9724 77.7552 -3.88073 51.6976 108.81 15.2619 20.5016 4.9145 20.5639 -9.68758 -23.2028 -29.8306 18.0808 61.4161 -8.37869 -1.83107 -0.266383 -1.18446e-009 1.5602e-007 -4.87131e-009 
-257.608 94.3509 8.1504 -10.0526 10.9395 -141.032 -28.913 12.4591 19.9598 47.0886 5.42621 -42.4423 0.0751188 -1.53177 -0.346484 0.0462048 0.000533403 0.662642 -10.5723 24.7244 0.694299 -0.00258252 -2.2747e-009 -0.00147784 -12.1704 23.3602 11.7675 -1.98785e-016 -1.19271e-015 -3.18055e-015 179.843 -51.1308 -142.152 -114.796 75.0528 -3.67972 18.1148 18.538 -6.32817 14.378 9.62545 -1.02186 108.281 -7.85955 77.9251 -3.73555 51.7906 108.716 15.1926 20.5139 4.7571 20.1022 -9.7282 -22.6942 -29.5857 18.4441 61.1271 -8.39361 -1.86087 -0.280514 -1.18446e-009 1.5602e-007 -4.87132e-009 
-257.353 94.4048 8.11122 -10.1838 10.6741 -140.957 -29.0103 12.1454 19.3867 46.9506 6.07058 -42.2231 1.22221 -1.48694 -0.319311 0.0462048 0.000533403 0.662642 -10.7737 24.6652 0.697929 -0.00258252 -2.2747e-009 -0.00147784 -12.3481 23.0224 12.0696 -3.97569e-016 -1.59028e-015 -0 179.758 -50.9509 -142.242 -115.226 75.0217 -3.28803 18.2337 18.5114 -6.35331 14.2827 9.48836 -1.09856 108.417 -7.73866 78.0746 -3.63596 51.879 108.643 15.1114 20.5303 4.62079 19.6786 -9.83961 -22.1801 -29.1828 18.7587 60.8276 -8.445 -1.91424 -0.301532 -1.18446e-009 1.5602e-007 -4.87131e-009 
-257.165 94.4668 8.09714 -10.3138 10.3963 -140.902 -29.1416 11.8022 18.9041 46.7689 6.71416 -42.0323 2.43287 -1.43648 -0.293976 0.0462048 0.000533403 0.662642 -11.0034 24.6009 0.721189 -0.00258252 -2.27469e-009 -0.00147784 -12.4764 22.6857 12.3094 -2.98177e-015 -2.78299e-015 9.54166e-015 179.714 -50.7998 -142.299 -115.569 75.0178 -2.94563 18.3411 18.4729 -6.38768 14.2498 9.3498 -1.18098 108.52 -7.61389 78.1898 -3.58834 51.9582 108.604 15.0239 20.5513 4.50861 19.2824 -10.0025 -21.6772 -28.7534 19.0516 60.5392 -8.50873 -1.97808 -0.325263 -1.18446e-009 1.5602e-007 -4.87131e-009 
-257.039 94.5272 8.10919 -10.4345 10.1159 -140.868 -29.2998 11.4383 18.5122 46.5513 7.34463 -41.8708 3.69671 -1.383 -0.270066 0.0462048 0.000533403 0.662642 -11.2465 24.5329 0.760028 -0.00258252 -2.2747e-009 -0.00147784 -12.5555 22.3472 12.4962 2.78299e-015 3.97569e-016 -9.54166e-015 179.688 -50.6791 -142.347 -115.843 75.0266 -2.64379 18.4341 18.4188 -6.43106 14.2772 9.21019 -1.26708 108.591 -7.49267 78.264 -3.59733 52.0286 108.608 14.9296 20.5756 4.42096 18.9006 -10.1943 -21.2022 -28.367 19.3354 60.2714 -8.56874 -2.0429 -0.349193 -1.18446e-009 1.5602e-007 -4.87132e-009 
